<?xml version="1.0" encoding="UTF-8" standalone="no"?>
<!DOCTYPE svg PUBLIC "-//W3C//DTD SVG 1.1//EN"
 "http://www.w3.org/Graphics/SVG/1.1/DTD/svg11.dtd">
<!-- Generated by graphviz version 2.44.0 (20200408.0750)
 -->
<!-- Title: dependencies Pages: 1 -->
<svg width="792pt" height="211pt"
 viewBox="0.00 0.00 792.00 211.00" xmlns="http://www.w3.org/2000/svg" xmlns:xlink="http://www.w3.org/1999/xlink">
<g id="graph0" class="graph" transform="scale(1 1) rotate(0) translate(4 207)">
<title>dependencies</title>
<polygon fill="white" stroke="transparent" points="-4,4 -4,-207 788,-207 788,4 -4,4"/>
<text text-anchor="start" x="371.01" y="-42.4" font-family="sans-serif" font-weight="bold" font-size="14.00">Legend</text>
<polygon fill="#ffffb3" stroke="transparent" points="158,-10 158,-30 178,-30 178,-10 158,-10"/>
<text text-anchor="start" x="181.63" y="-15.4" font-family="sans-serif" font-size="14.00"> &#160;Declarations</text>
<polygon fill="#8dd3c7" stroke="transparent" points="271,-10 271,-30 291,-30 291,-10 271,-10"/>
<text text-anchor="start" x="294.73" y="-15.4" font-family="sans-serif" font-size="14.00"> &#160;Module</text>
<polygon fill="#80b1d3" stroke="transparent" points="357,-10 357,-30 377,-30 377,-10 357,-10"/>
<text text-anchor="start" x="380.78" y="-15.4" font-family="sans-serif" font-size="14.00"> &#160;Bootstrap</text>
<polygon fill="#fdb462" stroke="transparent" points="454,-10 454,-30 474,-30 474,-10 454,-10"/>
<text text-anchor="start" x="477.67" y="-15.4" font-family="sans-serif" font-size="14.00"> &#160;Providers</text>
<polygon fill="#fb8072" stroke="transparent" points="550,-10 550,-30 570,-30 570,-10 550,-10"/>
<text text-anchor="start" x="573.73" y="-15.4" font-family="sans-serif" font-size="14.00"> &#160;Exports</text>
<g id="clust1" class="cluster">
<title>cluster_HomeImagesModule</title>
<polygon fill="none" stroke="black" stroke-dasharray="1,5" points="8,-70 8,-195 776,-195 776,-70 8,-70"/>
</g>
<g id="clust8" class="cluster">
<title>cluster_HomeImagesModule_providers</title>
<polygon fill="none" stroke="black" points="570,-78 570,-130 768,-130 768,-78 570,-78"/>
</g>
<g id="clust5" class="cluster">
<title>cluster_HomeImagesModule_imports</title>
<polygon fill="none" stroke="black" points="366,-78 366,-130 562,-130 562,-78 366,-78"/>
</g>
<g id="clust2" class="cluster">
<title>cluster_HomeImagesModule_declarations</title>
<polygon fill="none" stroke="black" points="16,-78 16,-130 358,-130 358,-78 16,-78"/>
</g>
<!-- HomeImagesComponent -->
<g id="node1" class="node">
<title>HomeImagesComponent</title>
<polygon fill="#ffffb3" stroke="black" points="349.97,-122 194.03,-122 194.03,-86 349.97,-86 349.97,-122"/>
<text text-anchor="middle" x="272" y="-99.8" font-family="Times,serif" font-size="14.00">HomeImagesComponent</text>
</g>
<!-- HomeImagesModule -->
<g id="node3" class="node">
<title>HomeImagesModule</title>
<polygon fill="#8dd3c7" stroke="black" points="435.19,-187 432.19,-191 411.19,-191 408.19,-187 300.81,-187 300.81,-151 435.19,-151 435.19,-187"/>
<text text-anchor="middle" x="368" y="-164.8" font-family="Times,serif" font-size="14.00">HomeImagesModule</text>
</g>
<!-- HomeImagesComponent&#45;&gt;HomeImagesModule -->
<g id="edge1" class="edge">
<title>HomeImagesComponent&#45;&gt;HomeImagesModule</title>
<path fill="none" stroke="black" d="M325.45,-122.11C325.45,-122.11 325.45,-140.99 325.45,-140.99"/>
<polygon fill="black" stroke="black" points="321.95,-140.99 325.45,-150.99 328.95,-140.99 321.95,-140.99"/>
</g>
<!-- ModalImageComponent -->
<g id="node2" class="node">
<title>ModalImageComponent</title>
<polygon fill="#ffffb3" stroke="black" points="176.36,-122 23.64,-122 23.64,-86 176.36,-86 176.36,-122"/>
<text text-anchor="middle" x="100" y="-99.8" font-family="Times,serif" font-size="14.00">ModalImageComponent</text>
</g>
<!-- ModalImageComponent&#45;&gt;HomeImagesModule -->
<g id="edge2" class="edge">
<title>ModalImageComponent&#45;&gt;HomeImagesModule</title>
<path fill="none" stroke="black" d="M100,-122.11C100,-141.34 100,-169 100,-169 100,-169 290.72,-169 290.72,-169"/>
<polygon fill="black" stroke="black" points="290.72,-172.5 300.72,-169 290.72,-165.5 290.72,-172.5"/>
</g>
<!-- HomeImagesRoutingModule -->
<g id="node4" class="node">
<title>HomeImagesRoutingModule</title>
<polygon fill="#8dd3c7" stroke="black" points="553.8,-122 550.8,-126 529.8,-126 526.8,-122 374.2,-122 374.2,-86 553.8,-86 553.8,-122"/>
<text text-anchor="middle" x="464" y="-99.8" font-family="Times,serif" font-size="14.00">HomeImagesRoutingModule</text>
</g>
<!-- HomeImagesRoutingModule&#45;&gt;HomeImagesModule -->
<g id="edge3" class="edge">
<title>HomeImagesRoutingModule&#45;&gt;HomeImagesModule</title>
<path fill="none" stroke="black" d="M404.72,-122.11C404.72,-122.11 404.72,-140.99 404.72,-140.99"/>
<polygon fill="black" stroke="black" points="401.22,-140.99 404.72,-150.99 408.22,-140.99 401.22,-140.99"/>
</g>
<!-- HomeImagesService -->
<g id="node5" class="node">
<title>HomeImagesService</title>
<ellipse fill="#fdb462" stroke="black" cx="669" cy="-104" rx="91.45" ry="18"/>
<text text-anchor="middle" x="669" y="-99.8" font-family="Times,serif" font-size="14.00">HomeImagesService</text>
</g>
<!-- HomeImagesService&#45;&gt;HomeImagesModule -->
<g id="edge4" class="edge">
<title>HomeImagesService&#45;&gt;HomeImagesModule</title>
<path fill="none" stroke="black" d="M669,-122.11C669,-141.34 669,-169 669,-169 669,-169 445.18,-169 445.18,-169"/>
<polygon fill="black" stroke="black" points="445.18,-165.5 435.18,-169 445.18,-172.5 445.18,-165.5"/>
</g>
</g>
</svg>
